<svg xmlns="http://www.w3.org/2000/svg" xml:space="preserve" xmlns:xlink="http://www.w3.org/1999/xlink" style="max-width: 100%;height: auto;" width="1023" height="1023" viewBox="0 0 1023 1023">
<defs><mask id="qrmask"><g fill="#ffffff"><g>
<g transform="translate(310,62) scale(5.3216666666667)"><rect width="6" height="6"/></g>
<g transform="translate(341,62) scale(5.3216666666667)"><polygon points="6,6 0,6 0,0 6,0 3,3 "/></g>
<g transform="translate(434,62) scale(5.3216666666667)"><polygon points="6,6 0,6 0,0 3,3 6,0 "/></g>
<g transform="translate(527,62) scale(5.3216666666667)"><polygon points="6,6 0,6 3,3 0,0 6,0 "/></g>
<g transform="translate(558,62) scale(5.3216666666667)"><rect width="6" height="6"/></g>
<g transform="translate(589,62) scale(5.3216666666667)"><rect width="6" height="6"/></g>
<g transform="translate(620,62) scale(5.3216666666667)"><polygon points="6,6 0,6 0,0 6,0 3,3 "/></g>
<g transform="translate(682,62) scale(5.3216666666667)"><polygon points="6,6 0,6 0,0 3,3 6,0 "/></g>
<g transform="translate(310,93) scale(5.3216666666667)"><rect width="6" height="6"/></g>
<g transform="translate(372,93) scale(5.3216666666667)"><polygon points="6,6 0,6 3,3 0,0 6,0 "/></g>
<g transform="translate(403,93) scale(5.3216666666667)"><rect width="6" height="6"/></g>
<g transform="translate(434,93) scale(5.3216666666667)"><rect width="6" height="6"/></g>
<g transform="translate(465,93) scale(5.3216666666667)"><rect width="6" height="6"/></g>
<g transform="translate(496,93) scale(5.3216666666667)"><polygon points="6,6 0,6 0,0 6,0 3,3 "/></g>
<g transform="translate(558,93) scale(5.3216666666667)"><rect width="6" height="6"/></g>
<g transform="translate(589,93) scale(5.3216666666667)"><rect width="6" height="6"/></g>
<g transform="translate(651,93) scale(5.3216666666667)"><rect width="6" height="6"/></g>
<g transform="translate(682,93) scale(5.3216666666667)"><rect width="6" height="6"/></g>
<g transform="translate(310,124) scale(5.3216666666667)"><rect width="6" height="6"/></g>
<g transform="translate(341,124) scale(5.3216666666667)"><rect width="6" height="6"/></g>
<g transform="translate(403,124) scale(5.3216666666667)"><polygon points="6,6 3,3 0,6 0,0 6,0 "/></g>
<g transform="translate(527,124) scale(5.3216666666667)"><rect width="6" height="6"/></g>
<g transform="translate(620,124) scale(5.3216666666667)"><polygon points="6,6 0,6 3,3 0,0 6,0 "/></g>
<g transform="translate(651,124) scale(5.3216666666667)"><rect width="6" height="6"/></g>
<g transform="translate(341,155) scale(5.3216666666667)"><rect width="6" height="6"/></g>
<g transform="translate(372,155) scale(5.3216666666667)"><rect width="6" height="6"/></g>
<g transform="translate(465,155) scale(5.3216666666667)"><polygon points="6,6 0,6 0,0 3,3 6,0 "/></g>
<g transform="translate(589,155) scale(5.3216666666667)"><rect width="6" height="6"/></g>
<g transform="translate(651,155) scale(5.3216666666667)"><rect width="6" height="6"/></g>
<g transform="translate(341,186) scale(5.3216666666667)"><rect width="6" height="6"/></g>
<g transform="translate(372,186) scale(5.3216666666667)"><rect width="6" height="6"/></g>
<g transform="translate(403,186) scale(5.3216666666667)"><polygon points="6,6 0,6 0,0 6,0 3,3 "/></g>
<g transform="translate(465,186) scale(5.3216666666667)"><polygon points="6,6 3,3 0,6 0,0 6,0 "/></g>
<g transform="translate(620,186) scale(5.3216666666667)"><rect width="6" height="6"/></g>
<g transform="translate(651,186) scale(5.3216666666667)"><rect width="6" height="6"/></g>
<g transform="translate(310,217) scale(5.3216666666667)"><polygon points="6,6 0,6 0,0 3,3 6,0 "/></g>
<g transform="translate(372,217) scale(5.3216666666667)"><rect width="6" height="6"/></g>
<g transform="translate(496,217) scale(5.3216666666667)"><polygon points="6,6 0,6 0,0 3,3 6,0 "/></g>
<g transform="translate(558,217) scale(5.3216666666667)"><polygon points="6,6 0,6 0,0 3,3 6,0 "/></g>
<g transform="translate(620,217) scale(5.3216666666667)"><rect width="6" height="6"/></g>
<g transform="translate(310,248) scale(5.3216666666667)"><rect width="6" height="6"/></g>
<g transform="translate(372,248) scale(5.3216666666667)"><polygon points="6,6 3,3 0,6 0,0 6,0 "/></g>
<g transform="translate(434,248) scale(5.3216666666667)"><rect width="6" height="6"/></g>
<g transform="translate(496,248) scale(5.3216666666667)"><polygon points="6,6 3,3 0,6 0,0 6,0 "/></g>
<g transform="translate(558,248) scale(5.3216666666667)"><rect width="6" height="6"/></g>
<g transform="translate(620,248) scale(5.3216666666667)"><rect width="6" height="6"/></g>
<g transform="translate(682,248) scale(5.3216666666667)"><rect width="6" height="6"/></g>
<g transform="translate(310,279) scale(5.3216666666667)"><rect width="6" height="6"/></g>
<g transform="translate(341,279) scale(5.3216666666667)"><polygon points="6,6 0,6 0,0 6,0 3,3 "/></g>
<g transform="translate(465,279) scale(5.3216666666667)"><polygon points="6,6 0,6 0,0 3,3 6,0 "/></g>
<g transform="translate(527,279) scale(5.3216666666667)"><polygon points="6,6 0,6 3,3 0,0 6,0 "/></g>
<g transform="translate(558,279) scale(5.3216666666667)"><rect width="6" height="6"/></g>
<g transform="translate(620,279) scale(5.3216666666667)"><rect width="6" height="6"/></g>
<g transform="translate(651,279) scale(5.3216666666667)"><polygon points="6,6 0,6 0,0 6,0 3,3 "/></g>
<g transform="translate(124,310) scale(5.3216666666667)"><polygon points="6,6 0,6 3,3 0,0 6,0 "/></g>
<g transform="translate(155,310) scale(5.3216666666667)"><rect width="6" height="6"/></g>
<g transform="translate(186,310) scale(5.3216666666667)"><rect width="6" height="6"/></g>
<g transform="translate(248,310) scale(5.3216666666667)"><rect width="6" height="6"/></g>
<g transform="translate(310,310) scale(5.3216666666667)"><polygon points="6,6 3,3 0,6 0,0 6,0 "/></g>
<g transform="translate(372,310) scale(5.3216666666667)"><polygon points="6,6 0,6 3,3 0,0 6,0 "/></g>
<g transform="translate(403,310) scale(5.3216666666667)"><rect width="6" height="6"/></g>
<g transform="translate(434,310) scale(5.3216666666667)"><rect width="6" height="6"/></g>
<g transform="translate(465,310) scale(5.3216666666667)"><rect width="6" height="6"/></g>
<g transform="translate(496,310) scale(5.3216666666667)"><rect width="6" height="6"/></g>
<g transform="translate(620,310) scale(5.3216666666667)"><rect width="6" height="6"/></g>
<g transform="translate(682,310) scale(5.3216666666667)"><rect width="6" height="6"/></g>
<g transform="translate(713,310) scale(5.3216666666667)"><rect width="6" height="6"/></g>
<g transform="translate(744,310) scale(5.3216666666667)"><rect width="6" height="6"/></g>
<g transform="translate(775,310) scale(5.3216666666667)"><rect width="6" height="6"/></g>
<g transform="translate(868,310) scale(5.3216666666667)"><rect width="6" height="6"/></g>
<g transform="translate(899,310) scale(5.3216666666667)"><rect width="6" height="6"/></g>
<g transform="translate(930,310) scale(5.3216666666667)"><rect width="6" height="6"/></g>
<g transform="translate(62,341) scale(5.3216666666667)"><rect width="6" height="6"/></g>
<g transform="translate(93,341) scale(5.3216666666667)"><rect width="6" height="6"/></g>
<g transform="translate(186,341) scale(5.3216666666667)"><rect width="6" height="6"/></g>
<g transform="translate(279,341) scale(5.3216666666667)"><rect width="6" height="6"/></g>
<g transform="translate(496,341) scale(5.3216666666667)"><polygon points="6,6 3,3 0,6 0,0 6,0 "/></g>
<g transform="translate(589,341) scale(5.3216666666667)"><polygon points="6,6 0,6 3,3 0,0 6,0 "/></g>
<g transform="translate(620,341) scale(5.3216666666667)"><rect width="6" height="6"/></g>
<g transform="translate(682,341) scale(5.3216666666667)"><polygon points="6,6 3,3 0,6 0,0 6,0 "/></g>
<g transform="translate(744,341) scale(5.3216666666667)"><rect width="6" height="6"/></g>
<g transform="translate(775,341) scale(5.3216666666667)"><rect width="6" height="6"/></g>
<g transform="translate(806,341) scale(5.3216666666667)"><rect width="6" height="6"/></g>
<g transform="translate(837,341) scale(5.3216666666667)"><rect width="6" height="6"/></g>
<g transform="translate(868,341) scale(5.3216666666667)"><rect width="6" height="6"/></g>
<g transform="translate(930,341) scale(5.3216666666667)"><polygon points="6,6 3,3 0,6 0,0 6,0 "/></g>
<g transform="translate(62,372) scale(5.3216666666667)"><rect width="6" height="6"/></g>
<g transform="translate(93,372) scale(5.3216666666667)"><rect width="6" height="6"/></g>
<g transform="translate(124,372) scale(5.3216666666667)"><rect width="6" height="6"/></g>
<g transform="translate(155,372) scale(5.3216666666667)"><rect width="6" height="6"/></g>
<g transform="translate(186,372) scale(5.3216666666667)"><rect width="6" height="6"/></g>
<g transform="translate(217,372) scale(5.3216666666667)"><rect width="6" height="6"/></g>
<g transform="translate(248,372) scale(5.3216666666667)"><polygon points="6,6 0,6 0,0 6,0 3,3 "/></g>
<g transform="translate(341,372) scale(5.3216666666667)"><polygon points="6,6 0,6 0,0 3,3 6,0 "/></g>
<g transform="translate(465,372) scale(5.3216666666667)"><rect width="6" height="6"/></g>
<g transform="translate(527,372) scale(5.3216666666667)"><rect width="6" height="6"/></g>
<g transform="translate(713,372) scale(5.3216666666667)"><rect width="6" height="6"/></g>
<g transform="translate(744,372) scale(5.3216666666667)"><rect width="6" height="6"/></g>
<g transform="translate(775,372) scale(5.3216666666667)"><rect width="6" height="6"/></g>
<g transform="translate(806,372) scale(5.3216666666667)"><rect width="6" height="6"/></g>
<g transform="translate(868,372) scale(5.3216666666667)"><polygon points="6,6 3,3 0,6 0,0 6,0 "/></g>
<g transform="translate(93,403) scale(5.3216666666667)"><rect width="6" height="6"/></g>
<g transform="translate(310,403) scale(5.3216666666667)"><rect width="6" height="6"/></g>
<g transform="translate(341,403) scale(5.3216666666667)"><rect width="6" height="6"/></g>
<g transform="translate(434,403) scale(5.3216666666667)"><polygon points="6,6 0,6 0,0 3,3 6,0 "/></g>
<g transform="translate(496,403) scale(5.3216666666667)"><rect width="6" height="6"/></g>
<g transform="translate(558,403) scale(5.3216666666667)"><rect width="6" height="6"/></g>
<g transform="translate(620,403) scale(5.3216666666667)"><rect width="6" height="6"/></g>
<g transform="translate(713,403) scale(5.3216666666667)"><rect width="6" height="6"/></g>
<g transform="translate(744,403) scale(5.3216666666667)"><rect width="6" height="6"/></g>
<g transform="translate(775,403) scale(5.3216666666667)"><rect width="6" height="6"/></g>
<g transform="translate(806,403) scale(5.3216666666667)"><rect width="6" height="6"/></g>
<g transform="translate(837,403) scale(5.3216666666667)"><polygon points="6,6 0,6 0,0 6,0 3,3 "/></g>
<g transform="translate(899,403) scale(5.3216666666667)"><polygon points="6,6 0,6 0,0 3,3 6,0 "/></g>
<g transform="translate(93,434) scale(5.3216666666667)"><polygon points="6,6 3,3 0,6 0,0 6,0 "/></g>
<g transform="translate(186,434) scale(5.3216666666667)"><rect width="6" height="6"/></g>
<g transform="translate(248,434) scale(5.3216666666667)"><polygon points="6,6 0,6 3,3 0,0 6,0 "/></g>
<g transform="translate(279,434) scale(5.3216666666667)"><rect width="6" height="6"/></g>
<g transform="translate(310,434) scale(5.3216666666667)"><rect width="6" height="6"/></g>
<g transform="translate(434,434) scale(5.3216666666667)"><rect width="6" height="6"/></g>
<g transform="translate(527,434) scale(5.3216666666667)"><rect width="6" height="6"/></g>
<g transform="translate(589,434) scale(5.3216666666667)"><polygon points="6,6 0,6 0,0 3,3 6,0 "/></g>
<g transform="translate(682,434) scale(5.3216666666667)"><rect width="6" height="6"/></g>
<g transform="translate(713,434) scale(5.3216666666667)"><rect width="6" height="6"/></g>
<g transform="translate(775,434) scale(5.3216666666667)"><polygon points="6,6 3,3 0,6 0,0 6,0 "/></g>
<g transform="translate(868,434) scale(5.3216666666667)"><polygon points="6,6 0,6 3,3 0,0 6,0 "/></g>
<g transform="translate(899,434) scale(5.3216666666667)"><rect width="6" height="6"/></g>
<g transform="translate(930,434) scale(5.3216666666667)"><rect width="6" height="6"/></g>
<g transform="translate(124,465) scale(5.3216666666667)"><rect width="6" height="6"/></g>
<g transform="translate(155,465) scale(5.3216666666667)"><polygon points="6,6 0,6 0,0 6,0 3,3 "/></g>
<g transform="translate(310,465) scale(5.3216666666667)"><rect width="6" height="6"/></g>
<g transform="translate(341,465) scale(5.3216666666667)"><rect width="6" height="6"/></g>
<g transform="translate(372,465) scale(5.3216666666667)"><rect width="6" height="6"/></g>
<g transform="translate(403,465) scale(5.3216666666667)"><rect width="6" height="6"/></g>
<g transform="translate(434,465) scale(5.3216666666667)"><rect width="6" height="6"/></g>
<g transform="translate(465,465) scale(5.3216666666667)"><polygon points="6,6 0,6 0,0 6,0 3,3 "/></g>
<g transform="translate(558,465) scale(5.3216666666667)"><rect width="6" height="6"/></g>
<g transform="translate(589,465) scale(5.3216666666667)"><rect width="6" height="6"/></g>
<g transform="translate(620,465) scale(5.3216666666667)"><rect width="6" height="6"/></g>
<g transform="translate(651,465) scale(5.3216666666667)"><rect width="6" height="6"/></g>
<g transform="translate(682,465) scale(5.3216666666667)"><rect width="6" height="6"/></g>
<g transform="translate(713,465) scale(5.3216666666667)"><rect width="6" height="6"/></g>
<g transform="translate(744,465) scale(5.3216666666667)"><rect width="6" height="6"/></g>
<g transform="translate(806,465) scale(5.3216666666667)"><polygon points="6,6 0,6 3,3 0,0 6,0 "/></g>
<g transform="translate(837,465) scale(5.3216666666667)"><polygon points="6,6 0,6 0,0 6,0 3,3 "/></g>
<g transform="translate(899,465) scale(5.3216666666667)"><rect width="6" height="6"/></g>
<g transform="translate(930,465) scale(5.3216666666667)"><rect width="6" height="6"/></g>
<g transform="translate(62,496) scale(5.3216666666667)"><polygon points="6,6 0,6 3,3 0,0 6,0 "/></g>
<g transform="translate(93,496) scale(5.3216666666667)"><rect width="6" height="6"/></g>
<g transform="translate(124,496) scale(5.3216666666667)"><rect width="6" height="6"/></g>
<g transform="translate(186,496) scale(5.3216666666667)"><polygon points="6,6 0,6 3,3 0,0 6,0 "/></g>
<g transform="translate(217,496) scale(5.3216666666667)"><rect width="6" height="6"/></g>
<g transform="translate(248,496) scale(5.3216666666667)"><rect width="6" height="6"/></g>
<g transform="translate(279,496) scale(5.3216666666667)"><rect width="6" height="6"/></g>
<g transform="translate(310,496) scale(5.3216666666667)"><rect width="6" height="6"/></g>
<g transform="translate(403,496) scale(5.3216666666667)"><rect width="6" height="6"/></g>
<g transform="translate(434,496) scale(5.3216666666667)"><rect width="6" height="6"/></g>
<g transform="translate(527,496) scale(5.3216666666667)"><polygon points="6,6 0,6 3,3 0,0 6,0 "/></g>
<g transform="translate(558,496) scale(5.3216666666667)"><rect width="6" height="6"/></g>
<g transform="translate(620,496) scale(5.3216666666667)"><rect width="6" height="6"/></g>
<g transform="translate(682,496) scale(5.3216666666667)"><rect width="6" height="6"/></g>
<g transform="translate(713,496) scale(5.3216666666667)"><rect width="6" height="6"/></g>
<g transform="translate(744,496) scale(5.3216666666667)"><rect width="6" height="6"/></g>
<g transform="translate(775,496) scale(5.3216666666667)"><polygon points="6,6 0,6 0,0 6,0 3,3 "/></g>
<g transform="translate(155,527) scale(5.3216666666667)"><polygon points="6,6 0,6 0,0 3,3 6,0 "/></g>
<g transform="translate(217,527) scale(5.3216666666667)"><polygon points="6,6 3,3 0,6 0,0 6,0 "/></g>
<g transform="translate(279,527) scale(5.3216666666667)"><rect width="6" height="6"/></g>
<g transform="translate(310,527) scale(5.3216666666667)"><rect width="6" height="6"/></g>
<g transform="translate(403,527) scale(5.3216666666667)"><rect width="6" height="6"/></g>
<g transform="translate(558,527) scale(5.3216666666667)"><rect width="6" height="6"/></g>
<g transform="translate(589,527) scale(5.3216666666667)"><rect width="6" height="6"/></g>
<g transform="translate(620,527) scale(5.3216666666667)"><rect width="6" height="6"/></g>
<g transform="translate(806,527) scale(5.3216666666667)"><rect width="6" height="6"/></g>
<g transform="translate(837,527) scale(5.3216666666667)"><rect width="6" height="6"/></g>
<g transform="translate(62,558) scale(5.3216666666667)"><polygon points="6,6 0,6 0,0 3,3 6,0 "/></g>
<g transform="translate(124,558) scale(5.3216666666667)"><polygon points="6,6 0,6 3,3 0,0 6,0 "/></g>
<g transform="translate(155,558) scale(5.3216666666667)"><rect width="6" height="6"/></g>
<g transform="translate(248,558) scale(5.3216666666667)"><rect width="6" height="6"/></g>
<g transform="translate(310,558) scale(5.3216666666667)"><polygon points="6,6 3,3 0,6 0,0 6,0 "/></g>
<g transform="translate(403,558) scale(5.3216666666667)"><rect width="6" height="6"/></g>
<g transform="translate(434,558) scale(5.3216666666667)"><polygon points="6,6 0,6 0,0 6,0 3,3 "/></g>
<g transform="translate(558,558) scale(5.3216666666667)"><rect width="6" height="6"/></g>
<g transform="translate(589,558) scale(5.3216666666667)"><rect width="6" height="6"/></g>
<g transform="translate(620,558) scale(5.3216666666667)"><rect width="6" height="6"/></g>
<g transform="translate(713,558) scale(5.3216666666667)"><rect width="6" height="6"/></g>
<g transform="translate(744,558) scale(5.3216666666667)"><rect width="6" height="6"/></g>
<g transform="translate(775,558) scale(5.3216666666667)"><rect width="6" height="6"/></g>
<g transform="translate(806,558) scale(5.3216666666667)"><rect width="6" height="6"/></g>
<g transform="translate(837,558) scale(5.3216666666667)"><rect width="6" height="6"/></g>
<g transform="translate(868,558) scale(5.3216666666667)"><rect width="6" height="6"/></g>
<g transform="translate(899,558) scale(5.3216666666667)"><rect width="6" height="6"/></g>
<g transform="translate(930,558) scale(5.3216666666667)"><rect width="6" height="6"/></g>
<g transform="translate(62,589) scale(5.3216666666667)"><rect width="6" height="6"/></g>
<g transform="translate(279,589) scale(5.3216666666667)"><polygon points="6,6 0,6 0,0 3,3 6,0 "/></g>
<g transform="translate(341,589) scale(5.3216666666667)"><rect width="6" height="6"/></g>
<g transform="translate(372,589) scale(5.3216666666667)"><rect width="6" height="6"/></g>
<g transform="translate(403,589) scale(5.3216666666667)"><rect width="6" height="6"/></g>
<g transform="translate(496,589) scale(5.3216666666667)"><rect width="6" height="6"/></g>
<g transform="translate(589,589) scale(5.3216666666667)"><rect width="6" height="6"/></g>
<g transform="translate(620,589) scale(5.3216666666667)"><rect width="6" height="6"/></g>
<g transform="translate(713,589) scale(5.3216666666667)"><rect width="6" height="6"/></g>
<g transform="translate(744,589) scale(5.3216666666667)"><rect width="6" height="6"/></g>
<g transform="translate(868,589) scale(5.3216666666667)"><rect width="6" height="6"/></g>
<g transform="translate(899,589) scale(5.3216666666667)"><rect width="6" height="6"/></g>
<g transform="translate(930,589) scale(5.3216666666667)"><rect width="6" height="6"/></g>
<g transform="translate(62,620) scale(5.3216666666667)"><rect width="6" height="6"/></g>
<g transform="translate(186,620) scale(5.3216666666667)"><rect width="6" height="6"/></g>
<g transform="translate(217,620) scale(5.3216666666667)"><rect width="6" height="6"/></g>
<g transform="translate(248,620) scale(5.3216666666667)"><rect width="6" height="6"/></g>
<g transform="translate(279,620) scale(5.3216666666667)"><rect width="6" height="6"/></g>
<g transform="translate(310,620) scale(5.3216666666667)"><rect width="6" height="6"/></g>
<g transform="translate(341,620) scale(5.3216666666667)"><rect width="6" height="6"/></g>
<g transform="translate(372,620) scale(5.3216666666667)"><rect width="6" height="6"/></g>
<g transform="translate(403,620) scale(5.3216666666667)"><rect width="6" height="6"/></g>
<g transform="translate(434,620) scale(5.3216666666667)"><polygon points="6,6 0,6 0,0 6,0 3,3 "/></g>
<g transform="translate(527,620) scale(5.3216666666667)"><rect width="6" height="6"/></g>
<g transform="translate(589,620) scale(5.3216666666667)"><rect width="6" height="6"/></g>
<g transform="translate(682,620) scale(5.3216666666667)"><rect width="6" height="6"/></g>
<g transform="translate(744,620) scale(5.3216666666667)"><rect width="6" height="6"/></g>
<g transform="translate(775,620) scale(5.3216666666667)"><rect width="6" height="6"/></g>
<g transform="translate(837,620) scale(5.3216666666667)"><polygon points="6,6 0,6 3,3 0,0 6,0 "/></g>
<g transform="translate(868,620) scale(5.3216666666667)"><rect width="6" height="6"/></g>
<g transform="translate(62,651) scale(5.3216666666667)"><rect width="6" height="6"/></g>
<g transform="translate(124,651) scale(5.3216666666667)"><rect width="6" height="6"/></g>
<g transform="translate(186,651) scale(5.3216666666667)"><rect width="6" height="6"/></g>
<g transform="translate(217,651) scale(5.3216666666667)"><rect width="6" height="6"/></g>
<g transform="translate(310,651) scale(5.3216666666667)"><rect width="6" height="6"/></g>
<g transform="translate(372,651) scale(5.3216666666667)"><rect width="6" height="6"/></g>
<g transform="translate(403,651) scale(5.3216666666667)"><rect width="6" height="6"/></g>
<g transform="translate(558,651) scale(5.3216666666667)"><polygon points="6,6 0,6 3,3 0,0 6,0 "/></g>
<g transform="translate(589,651) scale(5.3216666666667)"><rect width="6" height="6"/></g>
<g transform="translate(744,651) scale(5.3216666666667)"><rect width="6" height="6"/></g>
<g transform="translate(775,651) scale(5.3216666666667)"><rect width="6" height="6"/></g>
<g transform="translate(806,651) scale(5.3216666666667)"><rect width="6" height="6"/></g>
<g transform="translate(930,651) scale(5.3216666666667)"><polygon points="6,6 0,6 0,0 3,3 6,0 "/></g>
<g transform="translate(62,682) scale(5.3216666666667)"><polygon points="6,6 3,3 0,6 0,0 6,0 "/></g>
<g transform="translate(155,682) scale(5.3216666666667)"><rect width="6" height="6"/></g>
<g transform="translate(248,682) scale(5.3216666666667)"><rect width="6" height="6"/></g>
<g transform="translate(310,682) scale(5.3216666666667)"><rect width="6" height="6"/></g>
<g transform="translate(465,682) scale(5.3216666666667)"><rect width="6" height="6"/></g>
<g transform="translate(496,682) scale(5.3216666666667)"><rect width="6" height="6"/></g>
<g transform="translate(527,682) scale(5.3216666666667)"><polygon points="6,6 0,6 0,0 6,0 3,3 "/></g>
<g transform="translate(589,682) scale(5.3216666666667)"><rect width="6" height="6"/></g>
<g transform="translate(620,682) scale(5.3216666666667)"><rect width="6" height="6"/></g>
<g transform="translate(651,682) scale(5.3216666666667)"><rect width="6" height="6"/></g>
<g transform="translate(682,682) scale(5.3216666666667)"><rect width="6" height="6"/></g>
<g transform="translate(713,682) scale(5.3216666666667)"><rect width="6" height="6"/></g>
<g transform="translate(744,682) scale(5.3216666666667)"><rect width="6" height="6"/></g>
<g transform="translate(775,682) scale(5.3216666666667)"><rect width="6" height="6"/></g>
<g transform="translate(806,682) scale(5.3216666666667)"><rect width="6" height="6"/></g>
<g transform="translate(868,682) scale(5.3216666666667)"><rect width="6" height="6"/></g>
<g transform="translate(930,682) scale(5.3216666666667)"><rect width="6" height="6"/></g>
<g transform="translate(310,713) scale(5.3216666666667)"><rect width="6" height="6"/></g>
<g transform="translate(341,713) scale(5.3216666666667)"><polygon points="6,6 0,6 0,0 6,0 3,3 "/></g>
<g transform="translate(465,713) scale(5.3216666666667)"><rect width="6" height="6"/></g>
<g transform="translate(496,713) scale(5.3216666666667)"><rect width="6" height="6"/></g>
<g transform="translate(558,713) scale(5.3216666666667)"><polygon points="6,6 0,6 3,3 0,0 6,0 "/></g>
<g transform="translate(589,713) scale(5.3216666666667)"><rect width="6" height="6"/></g>
<g transform="translate(620,713) scale(5.3216666666667)"><rect width="6" height="6"/></g>
<g transform="translate(651,713) scale(5.3216666666667)"><rect width="6" height="6"/></g>
<g transform="translate(682,713) scale(5.3216666666667)"><rect width="6" height="6"/></g>
<g transform="translate(806,713) scale(5.3216666666667)"><rect width="6" height="6"/></g>
<g transform="translate(837,713) scale(5.3216666666667)"><polygon points="6,6 0,6 0,0 6,0 3,3 "/></g>
<g transform="translate(899,713) scale(5.3216666666667)"><polygon points="6,6 0,6 3,3 0,0 6,0 "/></g>
<g transform="translate(930,713) scale(5.3216666666667)"><rect width="6" height="6"/></g>
<g transform="translate(403,744) scale(5.3216666666667)"><rect width="6" height="6"/></g>
<g transform="translate(434,744) scale(5.3216666666667)"><rect width="6" height="6"/></g>
<g transform="translate(465,744) scale(5.3216666666667)"><rect width="6" height="6"/></g>
<g transform="translate(527,744) scale(5.3216666666667)"><polygon points="6,6 0,6 0,0 3,3 6,0 "/></g>
<g transform="translate(589,744) scale(5.3216666666667)"><rect width="6" height="6"/></g>
<g transform="translate(651,744) scale(5.3216666666667)"><rect width="6" height="6"/></g>
<g transform="translate(682,744) scale(5.3216666666667)"><rect width="6" height="6"/></g>
<g transform="translate(744,744) scale(5.3216666666667)"><rect width="6" height="6"/></g>
<g transform="translate(806,744) scale(5.3216666666667)"><rect width="6" height="6"/></g>
<g transform="translate(341,775) scale(5.3216666666667)"><rect width="6" height="6"/></g>
<g transform="translate(372,775) scale(5.3216666666667)"><rect width="6" height="6"/></g>
<g transform="translate(403,775) scale(5.3216666666667)"><rect width="6" height="6"/></g>
<g transform="translate(496,775) scale(5.3216666666667)"><polygon points="6,6 0,6 3,3 0,0 6,0 "/></g>
<g transform="translate(527,775) scale(5.3216666666667)"><rect width="6" height="6"/></g>
<g transform="translate(589,775) scale(5.3216666666667)"><rect width="6" height="6"/></g>
<g transform="translate(620,775) scale(5.3216666666667)"><rect width="6" height="6"/></g>
<g transform="translate(651,775) scale(5.3216666666667)"><rect width="6" height="6"/></g>
<g transform="translate(682,775) scale(5.3216666666667)"><rect width="6" height="6"/></g>
<g transform="translate(806,775) scale(5.3216666666667)"><rect width="6" height="6"/></g>
<g transform="translate(837,775) scale(5.3216666666667)"><rect width="6" height="6"/></g>
<g transform="translate(899,775) scale(5.3216666666667)"><rect width="6" height="6"/></g>
<g transform="translate(310,806) scale(5.3216666666667)"><rect width="6" height="6"/></g>
<g transform="translate(341,806) scale(5.3216666666667)"><rect width="6" height="6"/></g>
<g transform="translate(403,806) scale(5.3216666666667)"><rect width="6" height="6"/></g>
<g transform="translate(434,806) scale(5.3216666666667)"><rect width="6" height="6"/></g>
<g transform="translate(465,806) scale(5.3216666666667)"><polygon points="6,6 0,6 0,0 6,0 3,3 "/></g>
<g transform="translate(620,806) scale(5.3216666666667)"><rect width="6" height="6"/></g>
<g transform="translate(682,806) scale(5.3216666666667)"><rect width="6" height="6"/></g>
<g transform="translate(713,806) scale(5.3216666666667)"><rect width="6" height="6"/></g>
<g transform="translate(744,806) scale(5.3216666666667)"><rect width="6" height="6"/></g>
<g transform="translate(775,806) scale(5.3216666666667)"><rect width="6" height="6"/></g>
<g transform="translate(806,806) scale(5.3216666666667)"><rect width="6" height="6"/></g>
<g transform="translate(837,806) scale(5.3216666666667)"><rect width="6" height="6"/></g>
<g transform="translate(868,806) scale(5.3216666666667)"><polygon points="6,6 0,6 0,0 6,0 3,3 "/></g>
<g transform="translate(930,806) scale(5.3216666666667)"><rect width="6" height="6"/></g>
<g transform="translate(310,837) scale(5.3216666666667)"><rect width="6" height="6"/></g>
<g transform="translate(341,837) scale(5.3216666666667)"><rect width="6" height="6"/></g>
<g transform="translate(372,837) scale(5.3216666666667)"><rect width="6" height="6"/></g>
<g transform="translate(403,837) scale(5.3216666666667)"><rect width="6" height="6"/></g>
<g transform="translate(496,837) scale(5.3216666666667)"><rect width="6" height="6"/></g>
<g transform="translate(589,837) scale(5.3216666666667)"><rect width="6" height="6"/></g>
<g transform="translate(620,837) scale(5.3216666666667)"><rect width="6" height="6"/></g>
<g transform="translate(651,837) scale(5.3216666666667)"><rect width="6" height="6"/></g>
<g transform="translate(682,837) scale(5.3216666666667)"><rect width="6" height="6"/></g>
<g transform="translate(713,837) scale(5.3216666666667)"><rect width="6" height="6"/></g>
<g transform="translate(775,837) scale(5.3216666666667)"><rect width="6" height="6"/></g>
<g transform="translate(899,837) scale(5.3216666666667)"><polygon points="6,6 0,6 0,0 3,3 6,0 "/></g>
<g transform="translate(310,868) scale(5.3216666666667)"><polygon points="6,6 3,3 0,6 0,0 6,0 "/></g>
<g transform="translate(372,868) scale(5.3216666666667)"><rect width="6" height="6"/></g>
<g transform="translate(465,868) scale(5.3216666666667)"><rect width="6" height="6"/></g>
<g transform="translate(558,868) scale(5.3216666666667)"><polygon points="6,6 0,6 3,3 0,0 6,0 "/></g>
<g transform="translate(589,868) scale(5.3216666666667)"><rect width="6" height="6"/></g>
<g transform="translate(620,868) scale(5.3216666666667)"><rect width="6" height="6"/></g>
<g transform="translate(651,868) scale(5.3216666666667)"><rect width="6" height="6"/></g>
<g transform="translate(682,868) scale(5.3216666666667)"><rect width="6" height="6"/></g>
<g transform="translate(713,868) scale(5.3216666666667)"><rect width="6" height="6"/></g>
<g transform="translate(744,868) scale(5.3216666666667)"><rect width="6" height="6"/></g>
<g transform="translate(775,868) scale(5.3216666666667)"><rect width="6" height="6"/></g>
<g transform="translate(806,868) scale(5.3216666666667)"><rect width="6" height="6"/></g>
<g transform="translate(899,868) scale(5.3216666666667)"><rect width="6" height="6"/></g>
<g transform="translate(372,899) scale(5.3216666666667)"><rect width="6" height="6"/></g>
<g transform="translate(403,899) scale(5.3216666666667)"><polygon points="6,6 0,6 0,0 6,0 3,3 "/></g>
<g transform="translate(620,899) scale(5.3216666666667)"><rect width="6" height="6"/></g>
<g transform="translate(682,899) scale(5.3216666666667)"><rect width="6" height="6"/></g>
<g transform="translate(713,899) scale(5.3216666666667)"><rect width="6" height="6"/></g>
<g transform="translate(744,899) scale(5.3216666666667)"><rect width="6" height="6"/></g>
<g transform="translate(806,899) scale(5.3216666666667)"><rect width="6" height="6"/></g>
<g transform="translate(899,899) scale(5.3216666666667)"><polygon points="6,6 3,3 0,6 0,0 6,0 "/></g>
<g transform="translate(341,930) scale(5.3216666666667)"><rect width="6" height="6"/></g>
<g transform="translate(496,930) scale(5.3216666666667)"><polygon points="6,6 0,6 3,3 0,0 6,0 "/></g>
<g transform="translate(527,930) scale(5.3216666666667)"><polygon points="6,6 0,6 0,0 6,0 3,3 "/></g>
<g transform="translate(620,930) scale(5.3216666666667)"><polygon points="6,6 3,3 0,6 0,0 6,0 "/></g>
<g transform="translate(713,930) scale(5.3216666666667)"><rect width="6" height="6"/></g>
<g transform="translate(744,930) scale(5.3216666666667)"><rect width="6" height="6"/></g>
<g transform="translate(806,930) scale(5.3216666666667)"><rect width="6" height="6"/></g>
<g transform="translate(837,930) scale(5.3216666666667)"><rect width="6" height="6"/></g>
<g transform="translate(868,930) scale(5.3216666666667)"><polygon points="6,6 0,6 0,0 6,0 3,3 "/></g>
</g></g></mask></defs>
<rect width="1023" height="1023" fill="#59ff00" x="0" y="0" />
<rect x="0" y="0" width="1023" height="1023" mask="url(#qrmask)" fill="#a31aff" />
<g><g transform="translate(62,62)"  fill="#ff8800"><g transform="scale(15.5)"><path d="M0,0l0.9,13c0,0.6,0.5,1,1,1h12V2c0-0.6-0.4-1-1-1L0,0z M12,12H3.8c-0.5,0-1-0.4-1-1L2,2l9,0.7c0.5,0,1,0.5,1,1 V12z"/></g></g>
<g transform="translate(124,124)"  fill="#ff0000"><g transform="scale(15.5)"><polygon points="3,0 3.4,0.7 4,0.2 4.1,0.9 4.9,0.7 4.8,1.5 5.6,1.5 5.2,2.2 5.9,2.5 5.3,3 5.9,3.5 5.2,3.8 5.6,4.5 4.8,4.5 4.9,5.3 4.1,5.1 4,5.8 3.4,5.3 3,6 2.5,5.3 1.9,5.8 1.8,5.1 1,5.3 1.1,4.5 0.4,4.5 0.7,3.8 0,3.5 0.6,3 0,2.5 0.7,2.2 0.4,1.5 1.1,1.5 1,0.7 1.8,0.9 1.9,0.2 2.5,0.7"/></g></g>
<g transform="translate(744,62)"  fill="#ff8800"><g transform="scale(15.5) rotate(90 7 7)"><path d="M0,0l0.9,13c0,0.6,0.5,1,1,1h12V2c0-0.6-0.4-1-1-1L0,0z M12,12H3.8c-0.5,0-1-0.4-1-1L2,2l9,0.7c0.5,0,1,0.5,1,1 V12z"/></g></g>
<g transform="translate(806,124)"  fill="#ff0000"><g transform="scale(15.5)"><polygon points="3,0 3.4,0.7 4,0.2 4.1,0.9 4.9,0.7 4.8,1.5 5.6,1.5 5.2,2.2 5.9,2.5 5.3,3 5.9,3.5 5.2,3.8 5.6,4.5 4.8,4.5 4.9,5.3 4.1,5.1 4,5.8 3.4,5.3 3,6 2.5,5.3 1.9,5.8 1.8,5.1 1,5.3 1.1,4.5 0.4,4.5 0.7,3.8 0,3.5 0.6,3 0,2.5 0.7,2.2 0.4,1.5 1.1,1.5 1,0.7 1.8,0.9 1.9,0.2 2.5,0.7"/></g></g>
<g transform="translate(62,744)"  fill="#ff8800"><g transform="scale(15.5) rotate(-90 7 7)"><path d="M0,0l0.9,13c0,0.6,0.5,1,1,1h12V2c0-0.6-0.4-1-1-1L0,0z M12,12H3.8c-0.5,0-1-0.4-1-1L2,2l9,0.7c0.5,0,1,0.5,1,1 V12z"/></g></g>
<g transform="translate(124,806)"  fill="#ff0000"><g transform="scale(15.5)"><polygon points="3,0 3.4,0.7 4,0.2 4.1,0.9 4.9,0.7 4.8,1.5 5.6,1.5 5.2,2.2 5.9,2.5 5.3,3 5.9,3.5 5.2,3.8 5.6,4.5 4.8,4.5 4.9,5.3 4.1,5.1 4,5.8 3.4,5.3 3,6 2.5,5.3 1.9,5.8 1.8,5.1 1,5.3 1.1,4.5 0.4,4.5 0.7,3.8 0,3.5 0.6,3 0,2.5 0.7,2.2 0.4,1.5 1.1,1.5 1,0.7 1.8,0.9 1.9,0.2 2.5,0.7"/></g></g></g>
</svg>